<?xml version="1.0" standalone="no"?>
<!DOCTYPE svg PUBLIC "-//W3C//DTD SVG 20010904//EN"
 "http://www.w3.org/TR/2001/REC-SVG-20010904/DTD/svg10.dtd">
<svg version="1.0" xmlns="http://www.w3.org/2000/svg"
 width="794.000000pt" height="794.000000pt" viewBox="0 0 794.000000 794.000000"
 preserveAspectRatio="xMidYMid meet">
<metadata>
Created by potrace 1.11, written by Peter Selinger 2001-2013
</metadata>
<g transform="translate(0.000000,794.000000) scale(0.100000,-0.100000)"
fill="#000000" stroke="none">
<path d="M3719 7936 c-2 -2 -44 -6 -94 -10 -49 -3 -99 -8 -110 -10 -11 -2 -46
-7 -79 -11 -67 -8 -82 -10 -191 -30 -107 -20 -107 -20 -210 -44 -521 -124
-1041 -372 -1475 -705 -156 -119 -189 -148 -352 -306 -502 -485 -860 -1077
-1052 -1741 -49 -169 -110 -456 -121 -564 -1 -16 -6 -52 -9 -80 -19 -148 -24
-257 -21 -515 2 -157 5 -298 8 -315 3 -16 8 -57 12 -90 45 -418 168 -848 353
-1240 37 -77 79 -161 93 -186 15 -26 41 -73 59 -105 18 -33 78 -129 135 -214
521 -785 1313 -1364 2216 -1620 123 -35 320 -79 423 -96 21 -3 48 -7 60 -10
11 -2 48 -7 81 -10 33 -4 63 -8 66 -10 30 -17 626 -26 789 -11 117 10 251 26
280 32 3 1 30 5 60 9 52 8 66 11 108 20 9 2 70 16 135 31 65 14 136 33 158 40
21 8 43 14 47 15 27 2 203 62 342 117 515 204 946 488 1346 887 398 399 684
831 887 1346 117 295 214 667 243 925 3 33 8 69 10 80 26 132 25 759 0 915 -2
14 -8 52 -12 85 -4 33 -8 62 -9 65 0 3 -4 26 -8 51 -60 368 -184 751 -359
1104 -42 85 -55 110 -123 230 -38 68 -166 265 -228 350 -214 293 -547 628
-837 842 -102 75 -257 180 -312 212 -18 10 -62 35 -98 56 -64 37 -261 137
-330 168 -95 43 -250 105 -250 100 0 -3 -6 -1 -12 5 -15 12 -264 90 -383 121
-164 41 -375 80 -530 96 -33 4 -71 9 -85 12 -28 6 -615 14 -621 9z"/>
</g>
</svg>
